<svg width="107" height="40" viewBox="0 0 107 40" fill="none" xmlns="http://www.w3.org/2000/svg">
<path d="M6.33084 18.4289C4.97975 18.4289 3.83454 18.1844 2.8952 17.6954C1.95587 17.1936 1.23529 16.4408 0.733451 15.4372C0.244484 14.4206 0 13.1339 0 11.5769C0 9.2736 0.559739 7.55578 1.67922 6.42343C2.7987 5.29109 4.35567 4.72491 6.35014 4.72491C7.48249 4.72491 8.48616 4.91149 9.36115 5.28465C10.2361 5.64494 10.9181 6.19825 11.4071 6.94457C11.9089 7.67802 12.1599 8.60448 12.1599 9.72396H10.3069C10.3069 8.95191 10.1396 8.31496 9.80509 7.81313C9.4834 7.31129 9.0266 6.93814 8.43469 6.69365C7.84278 6.4363 7.14793 6.30762 6.35014 6.30762C5.42368 6.30762 4.62589 6.48777 3.95678 6.84806C3.28766 7.20835 2.77939 7.76809 2.43197 8.52728C2.08455 9.2736 1.91083 10.2387 1.91083 11.4225V11.8278C1.91083 12.9988 2.08455 13.9574 2.43197 14.7037C2.77939 15.4372 3.28123 15.9776 3.93748 16.325C4.60659 16.6724 5.41081 16.8462 6.35014 16.8462C7.17367 16.8462 7.88138 16.7239 8.47329 16.4794C9.07807 16.235 9.5413 15.8618 9.86299 15.36C10.1975 14.8453 10.3648 14.2019 10.3648 13.4298H12.1599C12.1599 14.575 11.9025 15.5144 11.3878 16.2478C10.886 16.9813 10.1975 17.5281 9.32255 17.8884C8.44756 18.2487 7.45032 18.4289 6.33084 18.4289Z" fill="#000212"/>
<path d="M33.2654 18.1973V4.95653H35.0411L41.4685 13.6807C41.5328 13.7579 41.6165 13.8738 41.7194 14.0282C41.8224 14.1826 41.9253 14.337 42.0282 14.4914C42.1312 14.6329 42.2148 14.7616 42.2792 14.8774H42.3564C42.3564 14.6715 42.3564 14.4721 42.3564 14.2791C42.3564 14.0732 42.3564 13.8738 42.3564 13.6807V4.95653H44.1514V18.1973H42.4722L35.9676 9.31863C35.8775 9.17709 35.7424 8.97764 35.5623 8.72029C35.395 8.46294 35.2535 8.25706 35.1376 8.10265H35.0411C35.0411 8.30853 35.0411 8.51441 35.0411 8.72029C35.0411 8.91331 35.0411 9.11275 35.0411 9.31863V18.1973H33.2654Z" fill="#000212"/>
<path d="M56.8001 20.7064L54.426 18.371C54.2588 18.3967 54.0915 18.4096 53.9242 18.4096C53.7569 18.4224 53.5896 18.4289 53.4224 18.4289C52.0455 18.4289 50.8617 18.178 49.8709 17.6761C48.893 17.1743 48.1338 16.4151 47.5934 15.3986C47.0658 14.382 46.802 13.1081 46.802 11.5769C46.802 10.0328 47.0658 8.7589 47.5934 7.75523C48.1338 6.73869 48.893 5.9795 49.8709 5.47767C50.8617 4.97583 52.0455 4.72491 53.4224 4.72491C54.7992 4.72491 55.9766 4.97583 56.9545 5.47767C57.9453 5.9795 58.7045 6.73869 59.2321 7.75523C59.7725 8.7589 60.0427 10.0328 60.0427 11.5769C60.0427 13.2497 59.721 14.6136 59.0777 15.6688C58.4343 16.7239 57.5335 17.4831 56.3755 17.9463L59.2128 20.7064H56.8001ZM53.4224 16.8462C54.1429 16.8462 54.7928 16.7497 55.3718 16.5566C55.9637 16.3636 56.4591 16.0612 56.858 15.6495C57.2698 15.2248 57.585 14.6973 57.8038 14.0668C58.0225 13.4234 58.1319 12.6642 58.1319 11.7892V11.3839C58.1319 10.496 58.0225 9.73683 57.8038 9.10632C57.585 8.46294 57.2698 7.93537 56.858 7.52361C56.4591 7.09898 55.9637 6.79016 55.3718 6.59714C54.7928 6.40413 54.1429 6.30762 53.4224 6.30762C52.6889 6.30762 52.0327 6.40413 51.4536 6.59714C50.8746 6.79016 50.3792 7.09898 49.9674 7.52361C49.5557 7.93537 49.2404 8.46294 49.0217 9.10632C48.8158 9.73683 48.7128 10.496 48.7128 11.3839V11.7892C48.7128 12.6642 48.8158 13.4234 49.0217 14.0668C49.2404 14.6973 49.5557 15.2248 49.9674 15.6495C50.3792 16.0612 50.8746 16.3636 51.4536 16.5566C52.0327 16.7497 52.6889 16.8462 53.4224 16.8462Z" fill="#000212"/>
<path d="M68.0545 18.4289C66.935 18.4289 65.9699 18.2487 65.1592 17.8884C64.3486 17.5281 63.7245 16.962 63.287 16.1899C62.8624 15.405 62.6501 14.4013 62.6501 13.1789V4.95653H64.4837V13.3719C64.4837 14.53 64.7925 15.3986 65.4102 15.9776C66.0407 16.5566 66.9221 16.8462 68.0545 16.8462C69.1997 16.8462 70.094 16.5566 70.7373 15.9776C71.3807 15.3986 71.7024 14.53 71.7024 13.3719V4.95653H73.5167V13.1789C73.5167 14.4013 73.298 15.405 72.8605 16.1899C72.423 16.962 71.7925 17.5281 70.969 17.8884C70.1583 18.2487 69.1868 18.4289 68.0545 18.4289Z" fill="#000212"/>
<path d="M76.8066 18.1973V4.95653H86.9977V6.53924H78.6402V10.6311H86.1484V12.2138H78.6402V16.6145H87.1135V18.1973H76.8066Z" fill="#000212"/>
<path d="M90.4479 18.1973V4.95653H97.4157C98.3165 4.95653 99.0628 5.12381 99.6547 5.45837C100.259 5.78005 100.71 6.23685 101.006 6.82876C101.302 7.4078 101.45 8.07691 101.45 8.8361C101.45 9.7497 101.244 10.5346 100.832 11.1909C100.42 11.8471 99.8541 12.3168 99.1335 12.5999L101.913 18.1973H99.9056L97.3192 12.928H92.2816V18.1973H90.4479ZM92.2816 11.3646H97.242C97.9755 11.3646 98.5481 11.1394 98.9598 10.689C99.3845 10.2387 99.5968 9.62102 99.5968 8.8361C99.5968 8.34713 99.5067 7.93537 99.3266 7.60082C99.1464 7.26626 98.8826 7.00891 98.5352 6.82876C98.1878 6.63575 97.7567 6.53924 97.242 6.53924H92.2816V11.3646Z" fill="#000212"/>
<path d="M105.108 18.1972V16.1706H107V18.1972H105.108Z" fill="#000212"/>
<path fill-rule="evenodd" clip-rule="evenodd" d="M15.4073 18.7332V4.72491H29.4156V14.423L25.1054 18.7332H15.4073ZM22.0524 10.1128L18.4425 6.50289H27.6377V13.6865L24.3689 16.9552H17.1853V7.76011L20.7951 11.3699V12.8067H23.489V10.1128H22.0524Z" fill="#000212"/>
<path d="M98.2178 35.107V25.4973H99.2965L104.213 32.1372C104.269 32.2026 104.335 32.2913 104.41 32.4034C104.494 32.5154 104.573 32.6322 104.648 32.7536C104.732 32.8656 104.802 32.9684 104.858 33.0618H104.928C104.928 32.903 104.928 32.7489 104.928 32.5995C104.928 32.4407 104.928 32.2866 104.928 32.1372V25.4973H106.006V35.107H105.04L100.025 28.327C99.9595 28.2336 99.8568 28.0888 99.7167 27.8927C99.5766 27.6872 99.4552 27.5145 99.3525 27.3744H99.2965C99.2965 27.5332 99.2965 27.6919 99.2965 27.8507C99.2965 28.0001 99.2965 28.1589 99.2965 28.327V35.107H98.2178Z" fill="#BCBCBC"/>
<path d="M80.8493 35.2751C79.271 35.2751 78.0803 34.8688 77.2772 34.0564C76.474 33.2345 76.0724 31.9831 76.0724 30.3021C76.0724 29.2095 76.2546 28.2943 76.6188 27.5565C76.9923 26.8187 77.5386 26.2631 78.2577 25.8895C78.9862 25.516 79.8827 25.3292 80.9473 25.3292C81.6104 25.3292 82.2034 25.4039 82.7264 25.5533C83.2587 25.6934 83.7116 25.9082 84.0852 26.1977C84.4681 26.4779 84.7576 26.8327 84.9537 27.2623C85.1592 27.6919 85.2619 28.1962 85.2619 28.7752H84.1412C84.1412 28.3176 84.0618 27.9301 83.9031 27.6125C83.7443 27.295 83.5202 27.0382 83.2307 26.8421C82.9412 26.6366 82.6003 26.4919 82.2081 26.4078C81.8158 26.3238 81.3956 26.2818 80.9473 26.2818C80.3683 26.2818 79.85 26.3565 79.3924 26.5059C78.9348 26.646 78.5426 26.8748 78.2157 27.1923C77.8889 27.5005 77.6414 27.902 77.4733 28.397C77.3052 28.8826 77.2211 29.471 77.2211 30.1621V30.4562C77.2211 31.3808 77.3659 32.1279 77.6554 32.6976C77.9449 33.2672 78.3558 33.6828 78.8881 33.9443C79.4298 34.1964 80.0742 34.3225 80.8213 34.3225C81.6151 34.3225 82.2548 34.2151 82.7404 34.0003C83.2354 33.7762 83.5949 33.44 83.819 32.9917C84.0432 32.5341 84.1552 31.9551 84.1552 31.2547V31.0446H80.6111V30.106H85.2619V35.107H84.4074L84.2673 33.8182C84.0338 34.1638 83.735 34.4439 83.3708 34.6587C83.0159 34.8735 82.619 35.0276 82.1801 35.121C81.7505 35.2237 81.3069 35.2751 80.8493 35.2751Z" fill="#BCBCBC"/>
<path d="M62.4037 35.107V25.4973H63.5103V35.107H62.4037Z" fill="#BCBCBC"/>
<path d="M45.9467 35.2751C45.4331 35.2751 44.9334 35.2284 44.4478 35.135C43.9622 35.0416 43.5326 34.8828 43.1591 34.6587C42.7855 34.4346 42.4913 34.1404 42.2765 33.7762C42.0617 33.412 41.9543 32.959 41.9543 32.4174C41.9543 32.3707 41.9543 32.3287 41.9543 32.2913C41.9543 32.2446 41.959 32.1979 41.9684 32.1512H43.075C43.075 32.1886 43.0703 32.2399 43.061 32.3053C43.061 32.3707 43.061 32.4267 43.061 32.4734C43.061 32.8843 43.1824 33.2299 43.4252 33.51C43.6774 33.7809 44.0136 33.9863 44.4338 34.1264C44.8634 34.2571 45.3444 34.3225 45.8767 34.3225C46.0541 34.3225 46.2642 34.3132 46.507 34.2945C46.7592 34.2665 47.0113 34.2198 47.2635 34.1544C47.525 34.0797 47.7631 33.9816 47.9779 33.8602C48.1927 33.7295 48.3655 33.5661 48.4962 33.37C48.6363 33.1645 48.7063 32.9123 48.7063 32.6135C48.7063 32.268 48.613 31.9831 48.4262 31.759C48.2394 31.5349 47.9919 31.3528 47.6837 31.2127C47.3849 31.0633 47.0394 30.9325 46.6471 30.8204C46.2549 30.7084 45.8533 30.601 45.4424 30.4983C45.0315 30.3955 44.6299 30.2788 44.2377 30.148C43.8548 30.0173 43.5093 29.8539 43.2011 29.6578C42.8929 29.4616 42.6454 29.2188 42.4586 28.9293C42.2812 28.6305 42.1925 28.2663 42.1925 27.8367C42.1925 27.4631 42.2672 27.1223 42.4166 26.8141C42.566 26.5059 42.7948 26.2444 43.103 26.0296C43.4112 25.8055 43.8034 25.6327 44.2797 25.5113C44.756 25.3899 45.321 25.3292 45.9747 25.3292C46.4697 25.3292 46.932 25.3806 47.3615 25.4833C47.7911 25.586 48.1694 25.7494 48.4962 25.9736C48.8231 26.1884 49.0752 26.4639 49.2527 26.8001C49.4394 27.1269 49.5328 27.5238 49.5328 27.9908V28.1589H48.4402V27.9207C48.4402 27.5752 48.3328 27.2857 48.118 27.0522C47.9032 26.8094 47.6137 26.6226 47.2495 26.4919C46.8946 26.3518 46.4884 26.2818 46.0308 26.2818C45.4051 26.2818 44.8914 26.3471 44.4898 26.4779C44.0883 26.5993 43.7894 26.772 43.5933 26.9962C43.3972 27.211 43.2991 27.4538 43.2991 27.7246C43.2991 28.0421 43.3925 28.3083 43.5793 28.5231C43.7661 28.7285 44.0136 28.9013 44.3217 29.0414C44.6299 29.1721 44.9755 29.2935 45.3584 29.4056C45.7506 29.5083 46.1522 29.6111 46.5631 29.7138C46.974 29.8165 47.3709 29.9379 47.7538 30.078C48.146 30.2087 48.4962 30.3768 48.8044 30.5823C49.1219 30.7784 49.3694 31.0259 49.5468 31.3247C49.7336 31.6236 49.827 31.9925 49.827 32.4314C49.827 33.0945 49.6589 33.6361 49.3227 34.0564C48.9958 34.4766 48.5429 34.7848 47.9639 34.9809C47.3849 35.177 46.7125 35.2751 45.9467 35.2751Z" fill="#BCBCBC"/>
<path d="M22.4308 35.107V25.4973H29.7851V26.4498H23.5374V29.6998H29.1688V30.6663H23.5374V34.1544H29.8692V35.107H22.4308Z" fill="#BCBCBC"/>
<path d="M1.59619 35.107V25.4973H5.05624C6.08351 25.4973 6.95203 25.6654 7.66178 26.0016C8.38087 26.3284 8.9272 26.8467 9.30075 27.5565C9.68364 28.2569 9.87509 29.1721 9.87509 30.3021C9.87509 31.4135 9.68364 32.324 9.30075 33.0337C8.9272 33.7435 8.38087 34.2665 7.66178 34.6027C6.95203 34.9389 6.08351 35.107 5.05624 35.107H1.59619ZM2.70285 34.1544H5.01421C5.58388 34.1544 6.09752 34.089 6.55513 33.9583C7.01273 33.8182 7.40496 33.6034 7.73182 33.3139C8.05868 33.0151 8.30616 32.6322 8.47426 32.1652C8.64236 31.6983 8.72641 31.1333 8.72641 30.4702V30.1761C8.72641 29.4943 8.64236 28.92 8.47426 28.453C8.30616 27.9768 8.05868 27.5939 7.73182 27.3044C7.4143 27.0055 7.02674 26.7907 6.56913 26.66C6.11153 26.5199 5.59322 26.4498 5.01421 26.4498H2.70285V34.1544Z" fill="#BCBCBC"/>
</svg>
