<svg width="51" height="51" viewBox="0 0 51 51" fill="none" xmlns="http://www.w3.org/2000/svg">
<path d="M31.875 15.9375L37.1875 21.25M15.9375 42.5L42.1483 16.2892C42.9293 15.5081 42.9293 14.2418 42.1483 13.4607L39.6642 10.9767C38.8832 10.1956 37.6168 10.1956 36.8358 10.9767L10.625 37.1875V42.5H15.9375ZM15.9375 42.5H35.25C36.9069 42.5 38.25 41.1568 38.25 39.5V37.3676C38.25 36.572 37.9339 35.8089 37.3713 35.2463L36.125 34M9.5625 10.625C13.8125 6.37496 21.25 8.49996 21.25 12.75C21.25 18.0625 8.5 18.0625 8.5 23.375C8.5 25.2364 9.63292 26.6169 11.1049 27.625" stroke="black" stroke-width="1.5" stroke-linecap="round" stroke-linejoin="round"/>
<path opacity="0.2" d="M32 16L37 21.5L42 17L43 14.5L40 11L37.5 10.5L32 16Z" fill="black"/>
</svg>
