<svg width="52" height="52" viewBox="0 0 52 52" fill="none" xmlns="http://www.w3.org/2000/svg">
<path d="M45.5 21.6667H6.49999M22.75 10.8334L19.5 21.6667L26 43.3334L32.5 21.6667L29.25 10.8334M7.65249 22.9473L24.3895 41.544C25.2502 42.5003 26.7498 42.5003 27.6105 41.544L44.3475 22.9473C45.0222 22.1976 45.0904 21.0816 44.512 20.2553L38.5636 11.7575C38.1581 11.1783 37.4956 10.8334 36.7886 10.8334H15.2114C14.5044 10.8334 13.8419 11.1783 13.4364 11.7575L7.48796 20.2553C6.90959 21.0816 6.9778 22.1976 7.65249 22.9473Z" stroke="#000212" stroke-width="1.5" stroke-linejoin="bevel"/>
<path opacity="0.2" d="M32.85 21.7826L27 42L45 21.7826L37.8 11H29.7L32.85 21.7826Z" fill="#000212"/>
</svg>
