<svg width="56" height="56" viewBox="0 0 56 56" fill="none" xmlns="http://www.w3.org/2000/svg">
<path d="M9.33334 11.6667L16.0303 12.4108C18.4791 12.6829 20.9421 12.0414 22.947 10.6093L28 7L33.053 10.6093C35.0579 12.0413 37.5209 12.6829 39.9697 12.4108L46.6667 11.6667V34.7224C46.6667 37.7526 44.9546 40.5227 42.2444 41.8778L28 49L13.7556 41.8778C11.0453 40.5227 9.33334 37.7526 9.33334 34.7224V11.6667Z" stroke="#000212" stroke-width="1.5" stroke-linecap="round" stroke-linejoin="round"/>
<path d="M34.4226 35H36.1667C37.4553 35 38.5781 33.9219 38.1687 32.7C37.5448 30.8379 36.0098 29.7118 33.3115 29.3217M29.7501 25.5085C30.0896 25.6158 30.4785 25.6666 30.9167 25.6666C32.8611 25.6666 33.8333 24.6666 33.8333 22.1666C33.8333 19.6666 32.8611 18.6666 30.9167 18.6666C30.4785 18.6666 30.0896 18.7174 29.7501 18.8247M23.9167 29.1666C28.3188 29.1666 30.5743 30.4509 31.2648 33.0194C31.5516 34.0861 30.6046 35 29.5 35H18.3333C17.2288 35 16.2817 34.0861 16.5685 33.0194C17.259 30.4509 19.5146 29.1666 23.9167 29.1666ZM23.9167 25.6666C25.8611 25.6666 26.8333 24.6666 26.8333 22.1666C26.8333 19.6666 25.8611 18.6666 23.9167 18.6666C21.9722 18.6666 21 19.6666 21 22.1666C21 24.6666 21.9722 25.6666 23.9167 25.6666Z" stroke="#000212" stroke-width="1.5" stroke-linecap="round" stroke-linejoin="round"/>
<g opacity="0.2">
<path d="M29.5 35C30.6046 35 31.5517 34.0861 31.2649 33.0194C30.5744 30.4509 28.3188 29.1666 23.9167 29.1666C19.5146 29.1666 17.259 30.4509 16.5685 33.0194C16.2818 34.0861 17.2288 35 18.3334 35H29.5Z" fill="#000212"/>
<path fill-rule="evenodd" clip-rule="evenodd" d="M23.9167 25.6666C25.8612 25.6666 26.8334 24.6666 26.8334 22.1666C26.8334 19.6666 25.8612 18.6666 23.9167 18.6666C21.9723 18.6666 21 19.6666 21 22.1666C21 24.6666 21.9723 25.6666 23.9167 25.6666Z" fill="#000212"/>
</g>
</svg>
