<svg width="52" height="52" viewBox="0 0 52 52" fill="none" xmlns="http://www.w3.org/2000/svg">
<path d="M26 30.3334V34.6667M17.3333 19.5V13C17.3333 8.21357 21.2135 4.33337 26 4.33337C30.7865 4.33337 34.6667 8.21357 34.6667 13V19.5M12.8333 45.5H39.1667C40.2712 45.5 41.1667 44.6046 41.1667 43.5V21.5C41.1667 20.3955 40.2712 19.5 39.1667 19.5H12.8333C11.7288 19.5 10.8333 20.3955 10.8333 21.5V43.5C10.8333 44.6046 11.7288 45.5 12.8333 45.5Z" stroke="#000212" stroke-width="1.5" stroke-linecap="round" stroke-linejoin="round"/>
<path opacity="0.2" d="M35 19V41.6909V45H41V43.1091V19.9455L39.5 19H35Z" fill="black"/>
</svg>
